<svg xmlns="http://www.w3.org/2000/svg" viewBox="0 0 827.72 744.52"><defs><style>.cls-1{fill:#c42134;}.cls-2{fill:#1e355e;}</style></defs><title>usa archery logo</title><g id="Layer_1" data-name="Layer 1"><path class="cls-1" d="M139.49,415.21a5.3,5.3,0,0,1-.72.92c-9.08,6.46-18.3,12.71-28.64,17a83.37,83.37,0,0,1-11.25,3.64c-6.06,1.55-11.91.53-17.47-2.19-8.74-4.28-15.58-10.83-21.58-18.35a3.46,3.46,0,0,1-.32-1Z"/><path class="cls-1" d="M138.85,393.13H59.61c.11-.45.1-.79.27-1A69.36,69.36,0,0,1,78.1,375.61a28.77,28.77,0,0,1,24.33-3.16,86,86,0,0,1,16.17,6.95A121.51,121.51,0,0,1,138.85,393.13Z"/><path class="cls-1" d="M470.68,420.14v-3.85h29.45v3.83l-4.61.32c-1.65.12-2.53.91-2.48,2.66,0,1.59,0,3.19,0,5h21.82a21.46,21.46,0,0,0,.16-5.89c0-1.22-.91-1.62-1.95-1.71-1.69-.15-3.38-.25-5.18-.38v-3.8h29.57v3.84l-4.85.29a2.17,2.17,0,0,0-2.31,2.45c0,5.57,0,11.13,0,16.69a2.15,2.15,0,0,0,2.31,2.45c1.5.07,3,.16,4.75.26v4.05H508v-4c1.58-.11,3.16-.26,4.74-.34s2.39-.76,2.38-2.37c0-2.11,0-4.22,0-6.48h-22c0,2.35,0,4.56,0,6.78a1.85,1.85,0,0,0,2,2.05c1.59.11,3.19.19,5.07.3v4H470.76v-3.94l5.11-.42a1.88,1.88,0,0,0,1.95-2.08q0-8.65,0-17.33a2,2,0,0,0-2-2.05C474.19,420.36,472.59,420.27,470.68,420.14Z"/><path class="cls-1" d="M652.81,433.06c5.05,2.94,9.34,5.55,13.75,7.92a14.9,14.9,0,0,0,4.62,1.12,34.31,34.31,0,0,0,3.71.21v4.15h-4.68c-4.17,0-8.34-.06-12.51,0a6.81,6.81,0,0,1-4.17-1.29c-4.86-3.31-9.85-6.44-14.63-9.87a8.88,8.88,0,0,0-7.85-1.56c0,2,0,4.1,0,6.21a1.87,1.87,0,0,0,2,2l5.15.36v3.86H608.58v-3.89l4.91-.34a2.13,2.13,0,0,0,2.26-2.48c0-5.45,0-10.91,0-16.37,0-2-.41-2.4-2.45-2.58-1.46-.12-2.95,0-4.66,0v-4.21a16.44,16.44,0,0,1,2-.24c12.62,0,25.25-.13,37.87.06a71.84,71.84,0,0,1,12.38,1.44,15.39,15.39,0,0,1,5.75,2.66c3.39,2.39,3.4,6.34-.18,8.42-2.81,1.63-6.1,2.44-9.22,3.5A34.93,34.93,0,0,1,652.81,433.06Zm-21.59-4.14c5.92,0,11.66.33,17.36-.67a9.78,9.78,0,0,0,2.41-.81c1.09-.51,2.09-1.19,2.11-2.57a2.66,2.66,0,0,0-2.09-2.55,15.65,15.65,0,0,0-4.34-1c-4.8-.15-9.6-.14-14.4-.15a3.24,3.24,0,0,0-1,.34Z"/><path class="cls-1" d="M334.73,420.53v-4.15a22.26,22.26,0,0,1,2.43-.26q18.76,0,37.53,0c4.71,0,9.43.19,13.9,1.91a18,18,0,0,1,4.75,2.57c2.87,2.31,2.86,5.77-.18,7.83a29.1,29.1,0,0,1-7,3.12,68.94,68.94,0,0,1-7.05,1.6c5.18,2.94,9.76,5.65,14.45,8.15a12.3,12.3,0,0,0,4,.82c1.15.16,2.31.17,3.58.25v3.88c-.81.07-1.63.2-2.45.2-4.92,0-9.84,0-14.76,0a6.8,6.8,0,0,1-4.16-1.29c-4.86-3.31-9.85-6.43-14.62-9.86a9.12,9.12,0,0,0-7.91-1.59c0,2,0,4.07,0,6.16,0,1.44.86,2.08,2.24,2.15,1.59.08,3.17.19,4.9.3V446c-2.24.62-26.14.74-29.68.11a8.46,8.46,0,0,1-.16-1.17c0-.74.07-1.48.12-2.49,1.51-.11,3-.19,4.43-.34,2.48-.27,2.82-.56,2.84-2.91q.08-7.86,0-15.72c0-2.41-.37-2.73-2.81-2.9C337.84,420.46,336.46,420.53,334.73,420.53Zm22.66,8.63c5.61-.24,10.82-.39,16-.73a11.15,11.15,0,0,0,4.24-1.24c2.4-1.23,2.42-3.32.13-4.6a7.72,7.72,0,0,0-3.3-1.09c-5.62-.1-11.25-.05-17.08-.05Z"/><path class="cls-1" d="M602,425.66c-2.58.5-4.73,1-6.91,1.28a2.76,2.76,0,0,1-1.92-.81,17.88,17.88,0,0,0-12.54-4.91c-4.47-.08-9,0-13.71,0v7c2.36,0,4.79.13,7.19,0,2.23-.15,2.45-2,2.57-3.93h7.49V437h-7.33c-.12-.51-.26-1.09-.37-1.68a2.69,2.69,0,0,0-2.72-2.28c-2.22-.11-4.45,0-6.88,0v7.82c.31.23.48.45.66.46a60.5,60.5,0,0,0,18.51-.74A18,18,0,0,0,597,433.78l7.94,1.31c-1.44,2.11-2.71,4-4,5.88s-2.62,3.63-3.88,5.38H544.35v-4c1.56-.1,3-.14,4.49-.29,2.31-.24,2.62-.52,2.64-2.73q.07-8,0-16.05c0-2.2-.38-2.55-2.6-2.83-1.46-.18-2.94-.19-4.57-.29v-3.79c.82-.08,1.63-.23,2.44-.23,15.31,0,30.61,0,45.91-.05a4.1,4.1,0,0,1,4,2C598.24,420.54,600.06,422.9,602,425.66Z"/><path class="cls-1" d="M302.62,446.32v-3.88l6.18-.83L306,436.78c-5.84,0-11.61-.15-17.37.08-2.47.09-3,2.53-4.1,4.81l6.05.76v3.87H267.28v-3.71c5.47-1.42,5.46-1.42,9.34-6.36,4.75-6.07,9.57-12.09,14.25-18.2a4.34,4.34,0,0,1,4-2c3,.13,6,.13,9,0a4.28,4.28,0,0,1,4,2c4.86,6.39,9.88,12.66,14.77,19,2.18,2.85,4.17,5.85,8.6,5.06v4.2Zm-11.55-14.24h11.42l-5.57-7.9Z"/><path class="cls-1" d="M458,416.28,463.83,427a70.59,70.59,0,0,1-7.27,1,4.61,4.61,0,0,1-2.67-1.39c-7-6.06-15-7.29-23.75-5.18a15.67,15.67,0,0,0-4.93,2.23c-4.79,3.25-5.23,8.81-1.12,12.92a17.53,17.53,0,0,0,9.64,4.72,32.29,32.29,0,0,0,22.28-4,7.07,7.07,0,0,1,7.37-.35c.65.32,1.33.58,2.38,1-.8.63-1.31,1.09-1.87,1.47-7.13,4.81-15.16,6.85-23.6,7.44a56.74,56.74,0,0,1-22.19-2.39,26.19,26.19,0,0,1-10-5.64C403,434,403,428,408.26,423.21c3.67-3.34,8.17-5.09,12.89-6.18a62.16,62.16,0,0,1,26.12-.38,7.86,7.86,0,0,0,4.28-.23C453.37,415.81,455.55,416.28,458,416.28Z"/><path class="cls-1" d="M675.09,420.44v-4.11h30v3.76l-5.64.56c1.14,2.33,3,3.25,4.45,4.53s3.12,2.59,4.93,4.08l10.24-7.92-.21-.73-5.41-.51v-3.81h24.05a13,13,0,0,1,.18,1.37c0,.74-.07,1.48-.1,2.15-.18.13-.27.24-.36.24-4.48,0-7.75,2.64-11.1,5.14q-5.26,3.94-10.65,7.73a3.46,3.46,0,0,0-1.68,3.17c.05,6.35-.22,5.9,5.6,6.12a12.39,12.39,0,0,1,1.59.28c0,.73.12,1.37.13,2s-.06,1-.11,1.76H691.52v-3.89l4.61-.32c1.65-.1,2.59-.87,2.53-2.62a11.18,11.18,0,0,1,0-1.92,4.32,4.32,0,0,0-2.16-4.56c-3.68-2.57-7.18-5.4-10.77-8.1C682.6,422.46,679.7,419.52,675.09,420.44Z"/><path class="cls-1" d="M336.62,298h75.07c-.58,1.06-1,1.88-1.48,2.65-12.72,19.54-25.38,39.13-38.26,58.58a30,30,0,0,1-7,6.92c-9.73,7.41-20.81,12.2-32.37,15.93a207.89,207.89,0,0,1-43,8.53,329.61,329.61,0,0,1-45.53,1c-14.45-.56-28.81-2-42.74-6.23-5.35-1.63-10.59-3.56-15.1-6.91a32.31,32.31,0,0,1-6.64-6.41c-3.19-4.29-3.7-9-.71-13.77,7.08-11.34,14-22.76,21.16-34.08,5.12-8.15,10.47-16.16,15.66-24.27a3.74,3.74,0,0,1,3.53-2.12c23.77.07,47.53,0,71.29.05.42,0,.85.07,1.79.14-.73,1.18-1.3,2.14-1.91,3.07q-14.56,22.31-29.12,44.61a25.41,25.41,0,0,0-2.89,5.69c-1.6,4.8.18,8.44,4.87,10.34s9.63,1.95,14.55,1.67a39.76,39.76,0,0,0,16.09-3.94c4.69-2.41,8.5-5.72,10.7-10.65a15.83,15.83,0,0,1,1.12-1.95l29.84-47.2C335.84,299.15,336.22,298.63,336.62,298Z"/><path class="cls-1" d="M748.66,391.22H670.51c.3-4.65.59-9.18.89-13.93a14.48,14.48,0,0,0-2.11-.3c-17.45,0-34.9,0-52.36,0a5,5,0,0,0-3.68,1.45c-4.39,3.93-8.89,7.72-13.3,11.63a4.82,4.82,0,0,1-3.44,1.33q-36,0-72,0a4.06,4.06,0,0,1-.79-.17c.27-1.18,1.37-1.52,2.15-2.09q49-36.12,98-72.21c7.84-5.78,15.7-11.53,23.51-17.36a7.37,7.37,0,0,1,4.68-1.62q38.22.08,76.45,0c.74,0,1.48.06,2.58.11C736.93,329,742.76,359.93,748.66,391.22Zm-76.23-62.05-.7-.36-31,28.26h30.43C671.58,347.69,672,338.43,672.43,329.17Z"/><path class="cls-1" d="M537,327.05a54.64,54.64,0,0,0-19.7-6.14c-5.83-.55-11.73-.63-17.6-.63a103,103,0,0,0-11.5.89,19.33,19.33,0,0,0-4.92,1.4,8.59,8.59,0,0,0-2.87,2c-2.35,2.49-1.91,4.24,1.4,4.91s6.55,1,9.84,1.3c8.73.9,17.47,1.59,26.18,2.63a55.12,55.12,0,0,1,16.66,4.5,37.36,37.36,0,0,1,7.69,4.55c4.79,3.82,5.86,8.91,3,14.33a28.92,28.92,0,0,1-4.84,6.73c-7,7.32-15.83,12-25.26,15.43-10.57,3.86-21.57,6.16-32.58,8.34-19.22,3.8-38.65,4.71-58.16,3.75a337.62,337.62,0,0,1-60.22-8.95,13.64,13.64,0,0,1-1.8-.78l35.38-23.45c4.58,1.79,8.91,3.6,13.33,5.17a80.66,80.66,0,0,0,33.2,4.08c5.11-.38,10.21-1,15.3-1.67a17.15,17.15,0,0,0,4.53-1.52,3,3,0,0,0,1.9-3.09,2.62,2.62,0,0,0-2.22-2.44,129.27,129.27,0,0,0-12.87-2.49c-7.65-.86-15.35-1.22-23-2a58.45,58.45,0,0,1-17.37-4.33,25.06,25.06,0,0,1-7.95-5.32c-4.07-4.13-4.9-11.8-.19-16.22a79.53,79.53,0,0,1,9.35-7.78c12.34-8.4,26.06-13.78,40.38-17.67a206.4,206.4,0,0,1,66.12-6.67,260,260,0,0,1,47.82,7.23c1.12.27,2.23.59,3.39.91C568.05,305.89,541.57,324.65,537,327.05Z"/></g><g id="Layer_2" data-name="Layer 2"><path class="cls-2" d="M500.59,454.48h49.94a40.66,40.66,0,0,1-1.27,9.75c-4.12,20.33-12,39.22-22.35,57.11-13.42,23.19-30.62,43.27-50.47,61.18-22.77,20.55-47.21,39-72.2,56.68-16,11.35-31.53,23.26-45.77,36.79a399.78,399.78,0,0,0-34.65,37.9c-.59.73-1.2,1.46-2.08,2.53a11.12,11.12,0,0,1-.48-2.06c-.35-27.17,4.64-53,19.47-76.28a85.27,85.27,0,0,1,16.78-19.34q18.75-15.88,37.79-31.4c19.26-15.7,38.44-31.48,56-49.14,11.79-11.88,22.79-24.42,31.87-38.54,7.34-11.41,13.25-23.46,16-36.87C499.68,460.09,500.09,457.35,500.59,454.48Z"/><path class="cls-2" d="M550.76,290.06H500.58c-.48-2.81-.86-5.54-1.41-8.23-3.09-14.93-9.95-28.16-18.44-40.63-9.68-14.22-21.2-26.87-33.46-38.87-18.31-17.93-38.21-34-58.08-50.1-10-8.09-19.83-16.33-29.65-24.6-18-15.12-28.5-34.68-34-57.2a161.15,161.15,0,0,1-4.38-35.27c-.05-2.22.14-4.45.23-7.1a9.26,9.26,0,0,1,1.29,1.09c23.49,30,51.39,55.23,82.62,76.95,19.6,13.63,38.68,28,56.89,43.42,16,13.6,31.42,27.8,44.57,44.28,17.59,22,31.26,46.2,39.3,73.36A125.47,125.47,0,0,1,550.76,290.06Z"/><path class="cls-2" d="M31.45,409.94l8.52-5.8-9.16-6.24c1.28-.16,1.94-.28,2.6-.31.86,0,1.72,0,2.57,0q352.19,0,704.35-.07a192.33,192.33,0,0,1,27.46,2.21c8.68,1.25,17.37,2.44,26.05,3.68a7.58,7.58,0,0,1,3,1q-12,1.69-23.93,3.38c-5.29.74-10.59,1.5-15.9,2.14a71.13,71.13,0,0,1-8.62.65q-356.5,0-713,0H31.6Z"/><path class="cls-2" d="M357.65,290.19H344.32a13.89,13.89,0,0,1-1.41-.17V118c.66.7,1.2,1.25,1.73,1.82,3.93,4.22,7.81,8.48,11.82,12.63a3.34,3.34,0,0,1,1.2,2.76c-.05.64,0,1.28,0,1.93V290.19Z"/><path class="cls-2" d="M342.93,455.59h14.72v3.57q0,74.82,0,149.64a6.62,6.62,0,0,1-2.35,5.49c-3.59,3.34-6.73,7.15-10,10.79-.7.76-1.33,1.57-2.36,2.79Z"/></g></svg>